HIERARCHY
ROOT Hips
{
	OFFSET 0.000000 35.082581 0.000000
	CHANNELS 6 Xposition Yposition Zposition Xrotation Yrotation Zrotation 
	JOINT Spine
	{
		OFFSET 0.000000 6.876099 0.125700
		CHANNELS 3 Xrotation Yrotation Zrotation
		JOINT Spine1
		{
			OFFSET 0.000000 5.730043 0.104720
			CHANNELS 3 Xrotation Yrotation Zrotation
			JOINT Spine1_split
			{
				OFFSET 0.000000 5.730043 0.104720
				CHANNELS 3 Xrotation Yrotation Zrotation
				JOINT Spine2
				{
					OFFSET 0.000000 5.730043 0.104720
					CHANNELS 3 Xrotation Yrotation Zrotation
					JOINT Neck
					{
						OFFSET 0.000000 10.314075 0.188496
						CHANNELS 3 Xrotation Yrotation Zrotation
						JOINT Head
						{
							OFFSET 0.000000 7.643700 -2.377400
							CHANNELS 3 Xrotation Yrotation Zrotation
							JOINT HeadTop_End
							{
								OFFSET 0.000000 43.788605 -13.619600
								CHANNELS 3 Xrotation Yrotation Zrotation
								End Site
								{
									OFFSET 0.000000 0.000000 0.000000
								}
							}
						}
					}
					JOINT LeftShoulder
					{
						OFFSET 2.196100 4.412489 0.087492
						CHANNELS 3 Xrotation Yrotation Zrotation
						JOINT LeftShoulder_split
						{
							OFFSET 2.196100 4.412489 0.087492
							CHANNELS 3 Xrotation Yrotation Zrotation
							JOINT LeftArm
							{
								OFFSET 8.771219 -2.981674 -0.026999
								CHANNELS 3 Xrotation Yrotation Zrotation
								JOINT LeftForeArm
								{
									OFFSET 8.512804 0.000000 -0.000000
									CHANNELS 3 Xrotation Yrotation Zrotation
									JOINT LeftHand
									{
										OFFSET 18.484802 0.000000 -0.000000
										CHANNELS 3 Xrotation Yrotation Zrotation
										JOINT LeftHandThumb1
										{
											OFFSET 2.499420 -1.158070 2.653252
											CHANNELS 3 Xrotation Yrotation Zrotation
											JOINT LeftHandThumb2
											{
												OFFSET 2.370079 -1.368366 1.368366
												CHANNELS 3 Xrotation Yrotation Zrotation
												JOINT LeftHandThumb3
												{
													OFFSET 2.676727 -1.545410 1.545409
													CHANNELS 3 Xrotation Yrotation Zrotation
													JOINT LeftHandThumb4
													{
														OFFSET 1.692226 -0.977005 0.977007
														CHANNELS 3 Xrotation Yrotation Zrotation
														End Site
														{
															OFFSET 0.000000 0.000000 0.000000
														}
													}
												}
											}
										}
										JOINT LeftHandIndex1
										{
											OFFSET 7.924831 -0.457527 2.345128
											CHANNELS 3 Xrotation Yrotation Zrotation
											JOINT LeftHandIndex2
											{
												OFFSET 3.643303 0.000000 0.000000
												CHANNELS 3 Xrotation Yrotation Zrotation
												JOINT LeftHandIndex3
												{
													OFFSET 3.810799 0.000000 0.000000
													CHANNELS 3 Xrotation Yrotation Zrotation
													JOINT LeftHandIndex4
													{
														OFFSET 2.403702 0.000000 0.000000
														CHANNELS 3 Xrotation Yrotation Zrotation
														End Site
														{
															OFFSET 0.000000 0.000000 0.000000
														}
													}
												}
											}
										}
										JOINT LeftHandMiddle1
										{
											OFFSET 8.563995 0.000000 -0.000000
											CHANNELS 3 Xrotation Yrotation Zrotation
											JOINT LeftHandMiddle2
											{
												OFFSET 3.861618 0.000000 0.000000
												CHANNELS 3 Xrotation Yrotation Zrotation
												JOINT LeftHandMiddle3
												{
													OFFSET 3.701603 0.000000 0.000000
													CHANNELS 3 Xrotation Yrotation Zrotation
													JOINT LeftHandMiddle4
													{
														OFFSET 2.322544 0.000000 0.000000
														CHANNELS 3 Xrotation Yrotation Zrotation
														End Site
														{
															OFFSET 0.000000 0.000000 0.000000
														}
													}
												}
											}
										}
										JOINT LeftHandRing1
										{
											OFFSET 8.426460 -0.424637 -3.286992
											CHANNELS 3 Xrotation Yrotation Zrotation
											JOINT LeftHandRing2
											{
												OFFSET 3.126408 0.000000 0.000000
												CHANNELS 3 Xrotation Yrotation Zrotation
												JOINT LeftHandRing3
												{
													OFFSET 3.085026 0.000000 0.000000
													CHANNELS 3 Xrotation Yrotation Zrotation
													JOINT LeftHandRing4
													{
														OFFSET 1.644005 0.000000 0.000000
														CHANNELS 3 Xrotation Yrotation Zrotation
														End Site
														{
															OFFSET 0.000000 0.000000 0.000000
														}
													}
												}
											}
										}
									}
								}
							}
						}
					}
					JOINT RightShoulder
					{
						OFFSET -2.196100 4.412496 0.070690
						CHANNELS 3 Xrotation Yrotation Zrotation
						JOINT RightShoulder_split
						{
							OFFSET -2.196100 4.412496 0.070690
							CHANNELS 3 Xrotation Yrotation Zrotation
							JOINT RightArm
							{
								OFFSET -8.771282 -2.981682 -0.094208
								CHANNELS 3 Xrotation Yrotation Zrotation
								JOINT RightForeArm
								{
									OFFSET -8.494598 0.000000 0.000000
									CHANNELS 3 Xrotation Yrotation Zrotation
									JOINT RightHand
									{
										OFFSET -18.483803 0.000000 0.000001
										CHANNELS 3 Xrotation Yrotation Zrotation
										JOINT RightHandThumb1
										{
											OFFSET -2.527351 -1.008072 2.575253
											CHANNELS 3 Xrotation Yrotation Zrotation
											JOINT RightHandThumb2
											{
												OFFSET -2.321518 -1.340328 1.340329
												CHANNELS 3 Xrotation Yrotation Zrotation
												JOINT RightHandThumb3
												{
													OFFSET -2.657753 -1.534454 1.534455
													CHANNELS 3 Xrotation Yrotation Zrotation
													JOINT RightHandThumb4
													{
														OFFSET -1.807510 -1.043568 1.043567
														CHANNELS 3 Xrotation Yrotation Zrotation
														End Site
														{
															OFFSET 0.000000 0.000000 0.000000
														}
													}
												}
											}
										}
										JOINT RightHandIndex1
										{
											OFFSET -8.811420 0.015533 2.887987
											CHANNELS 3 Xrotation Yrotation Zrotation
											JOINT RightHandIndex2
											{
												OFFSET -3.537502 0.000000 0.000000
												CHANNELS 3 Xrotation Yrotation Zrotation
												JOINT RightHandIndex3
												{
													OFFSET -3.356201 0.000000 0.000000
													CHANNELS 3 Xrotation Yrotation Zrotation
													JOINT RightHandIndex4
													{
														OFFSET -1.933098 0.000000 0.000000
														CHANNELS 3 Xrotation Yrotation Zrotation
														End Site
														{
															OFFSET 0.000000 0.000000 0.000000
														}
													}
												}
											}
										}
										JOINT RightHandMiddle1
										{
											OFFSET -8.178135 0.000000 0.000000
											CHANNELS 3 Xrotation Yrotation Zrotation
											JOINT RightHandMiddle2
											{
												OFFSET -3.901302 0.000000 0.000000
												CHANNELS 3 Xrotation Yrotation Zrotation
												JOINT RightHandMiddle3
												{
													OFFSET -3.909599 0.000000 0.000000
													CHANNELS 3 Xrotation Yrotation Zrotation
													JOINT RightHandMiddle4
													{
														OFFSET -2.376003 0.000000 0.000000
														CHANNELS 3 Xrotation Yrotation Zrotation
														End Site
														{
															OFFSET 0.000000 0.000000 0.000000
														}
													}
												}
											}
										}
										JOINT RightHandRing1
										{
											OFFSET -7.559013 0.014137 -2.865403
											CHANNELS 3 Xrotation Yrotation Zrotation
											JOINT RightHandRing2
											{
												OFFSET -3.449306 0.000000 0.000000
												CHANNELS 3 Xrotation Yrotation Zrotation
												JOINT RightHandRing3
												{
													OFFSET -3.362106 0.000000 0.000000
													CHANNELS 3 Xrotation Yrotation Zrotation
													JOINT RightHandRing4
													{
														OFFSET -2.076401 0.000000 0.000000
														CHANNELS 3 Xrotation Yrotation Zrotation
														End Site
														{
															OFFSET 0.000000 0.000000 0.000000
														}
													}
												}
											}
										}
									}
								}
							}
						}
					}
				}
			}
		}
	}
	JOINT LeftUpLeg
	{
		OFFSET 10.205400 -3.823500 0.155100
		CHANNELS 3 Xrotation Yrotation Zrotation
		JOINT LeftLeg
		{
			OFFSET 0.708757 -12.982077 0.567790
			CHANNELS 3 Xrotation Yrotation Zrotation
			JOINT LeftFoot
			{
				OFFSET -0.708756 -10.717838 -2.184338
				CHANNELS 3 Xrotation Yrotation Zrotation
				JOINT LeftToeBase
				{
					OFFSET 0.108149 -7.191104 7.560241
					CHANNELS 3 Xrotation Yrotation Zrotation
					JOINT LeftToe_End
					{
						OFFSET 0.070230 0.081724 4.490308
						CHANNELS 3 Xrotation Yrotation Zrotation
						End Site
						{
							OFFSET 0.000000 0.000000 0.000000
						}
					}
				}
			}
		}
	}
	JOINT RightUpLeg
	{
		OFFSET -10.205400 -3.823500 0.005500
		CHANNELS 3 Xrotation Yrotation Zrotation
		JOINT RightLeg
		{
			OFFSET -0.708756 -12.982134 0.610632
			CHANNELS 3 Xrotation Yrotation Zrotation
			JOINT RightFoot
			{
				OFFSET 0.708754 -10.717769 -1.945823
				CHANNELS 3 Xrotation Yrotation Zrotation
				JOINT RightToeBase
				{
					OFFSET -0.108140 -7.191069 7.372968
					CHANNELS 3 Xrotation Yrotation Zrotation
					JOINT RightToe_End
					{
						OFFSET -0.070227 0.081735 4.479403
						CHANNELS 3 Xrotation Yrotation Zrotation
						End Site
						{
							OFFSET 0.000000 0.000000 0.000000
						}
					}
				}
			}
		}
	}
}
MOTION
Frames: 4
Frame Time: 0.016667
2.264146 30.740589 51.990002 4.453018 -6.001206 -3.544877 16.201284 3.352608 1.945668 20.044443 7.628497 3.273777 0.000000 0.000000 0.000000 19.863250 7.768548 3.728082 -47.889981 28.030572 -28.867187 36.505404 -35.951011 36.350325 0.000000 0.000001 -0.000000 -3.629764 -15.408613 -10.382901 0.000000 0.000000 0.000000 -11.971371 6.480808 -65.205063 0.000017 -64.653929 0.000011 10.348449 11.182136 -5.507169 40.231539 -29.869766 63.220661 101.357125 66.798103 231.385663 -12.925942 -19.532198 6.920519 -0.000003 -0.000002 -0.000000 0.326273 4.094618 -16.584184 0.575165 2.533361 -25.578753 0.067062 0.884909 -8.668902 -0.000000 0.000002 0.000001 -1.060395 2.730925 -36.207540 1.715293 4.142496 -44.971796 1.052604 3.352008 -34.858174 -0.000001 0.000003 0.000000 -3.216835 3.157199 -55.387800 2.284624 4.641478 -52.395839 3.600479 5.402301 -67.342960 -0.000001 -0.000001 0.000001 -0.264763 19.358406 4.692097 0.000000 0.000000 0.000000 -45.642760 8.432339 36.901470 -0.000030 101.974533 -0.000001 -5.090102 -12.734934 15.640858 33.081799 30.015229 -8.052860 13.702079 -51.628454 20.266367 8.634636 -42.419163 1.849752 -0.000003 -0.000002 -0.000002 0.112188 -3.191136 17.097157 3.780001 -4.573992 79.132031 3.780018 -4.574005 79.132058 -0.000000 0.000002 -0.000002 2.613402 -8.387961 27.063300 5.675786 -4.544648 102.647136 5.225975 -4.622363 97.022946 -0.000000 -0.000001 -0.000000 1.668062 -5.863641 57.331536 4.190491 -4.633771 84.242495 4.352827 -4.647220 86.249013 -0.000000 -0.000001 -0.000000 -59.398904 7.568580 10.030764 40.396235 -5.621628 3.474851 6.118169 -14.509584 -2.206524 4.494606 -1.670367 0.264123 0.000000 0.000001 0.000000 -16.740473 3.481820 6.952256 49.702317 3.756221 -2.490389 -36.658312 -1.224306 -0.780487 -1.310632 0.000010 0.000001 0.000000 0.000000 0.000000 
2.213764 30.867699 51.595909 3.561510 -6.209744 -3.921596 16.018091 3.323401 2.013165 19.617225 7.612217 3.331498 0.000000 0.000000 0.000000 19.436454 7.747064 3.778476 -47.550657 27.672103 -28.991370 38.119252 -35.320653 37.422743 0.000001 0.000001 0.000001 -3.381581 -14.879798 -10.335925 0.000000 0.000000 0.000000 -13.224306 6.607386 -66.021872 -0.000008 -61.657771 0.000001 11.729655 10.831200 -6.290836 40.231535 -29.869756 63.220675 101.357111 66.798103 231.385717 -12.925924 -19.532200 6.920516 -0.000004 0.000002 -0.000004 0.332570 4.115496 -16.628114 0.574478 2.531942 -25.563272 0.066825 0.883345 -8.653491 -0.000000 -0.000002 0.000001 -1.056218 2.737767 -36.217003 1.715081 4.142265 -44.968517 1.052592 3.351998 -34.858181 -0.000001 -0.000000 0.000002 -3.220716 3.154175 -55.385690 2.283636 4.640727 -52.383555 3.599323 5.401810 -67.330639 0.000001 -0.000000 0.000002 -0.354234 18.524211 5.452754 0.000000 0.000000 0.000000 -46.329644 9.134351 35.856096 -0.000043 102.007762 0.000037 -4.606119 -14.524216 16.388248 33.376505 32.501011 -7.034560 15.577918 -52.554310 22.116856 7.397188 -41.000577 0.906537 -0.000001 -0.000003 0.000003 0.230065 -3.590282 18.982733 3.761836 -4.570477 78.904066 3.761840 -4.570471 78.904073 -0.000002 -0.000000 -0.000001 2.920895 -8.736726 28.390127 5.675523 -4.544714 102.644049 5.225987 -4.622377 97.022953 -0.000000 -0.000001 0.000000 1.674756 -5.879983 58.233121 4.191167 -4.633845 84.251060 4.353539 -4.647283 86.257585 -0.000000 -0.000001 0.000000 -58.761449 7.375179 10.995477 42.195150 -5.380873 3.870587 2.403688 -11.784856 -2.897534 4.289555 -1.961963 0.567508 0.000001 -0.000000 -0.000000 -16.295745 3.332906 7.125207 48.334117 4.041481 -2.179910 -35.267777 -1.010544 -0.755903 -1.095102 0.000008 0.000001 0.000000 -0.000000 0.000000 
2.166627 30.993961 51.215565 2.658952 -6.300213 -4.221702 15.854766 3.279021 2.080358 19.228931 7.527443 3.366000 0.000000 0.000000 0.000000 19.049739 7.657293 3.800927 -47.323034 27.067676 -28.852587 39.262137 -34.801996 37.979052 0.000001 -0.000000 0.000000 -3.121609 -14.392996 -10.230472 0.000000 0.000000 0.000000 -14.563007 6.814951 -66.747313 0.000008 -58.543839 0.000010 13.133022 10.507468 -7.034958 40.231535 -29.869735 63.220654 101.357104 66.798116 231.385717 -12.925893 -19.532220 6.920520 -0.000002 -0.000002 -0.000004 0.338904 4.136360 -16.672027 0.573803 2.530522 -25.547834 0.066598 0.881785 -8.638092 0.000002 -0.000001 -0.000003 -1.052001 2.744603 -36.226497 1.714831 4.142025 -44.965215 1.052594 3.352000 -34.858178 0.000000 0.000003 0.000001 -3.224556 3.151152 -55.383586 2.282629 4.639943 -52.371240 3.598165 5.401340 -67.318331 0.000003 0.000000 -0.000000 -0.392630 17.683326 6.225801 0.000000 0.000000 0.000000 -47.721866 9.660096 34.897813 -0.000050 101.754444 0.000009 -3.782687 -15.360846 17.241477 33.184262 33.896480 -6.641129 19.104963 -53.466400 25.625808 4.384512 -38.344378 -1.908736 0.000002 0.000002 0.000005 0.430317 -4.130888 22.535902 3.754268 -4.568992 78.809045 3.754261 -4.568985 78.809038 0.000002 -0.000002 0.000001 3.498110 -9.251678 31.121518 5.680934 -4.543502 102.712392 5.225978 -4.622392 97.022960 -0.000000 0.000001 0.000000 1.784274 -5.966292 59.751540 4.181628 -4.632864 84.132843 4.343960 -4.646639 86.139361 0.000000 -0.000000 -0.000000 -58.008291 7.524135 11.817013 44.147368 -5.380190 4.318979 -1.681012 -8.820137 -3.228137 4.116099 -2.409846 0.997250 0.000000 -0.000000 -0.000000 -15.789978 3.162085 7.326870 47.057715 4.301817 -1.999293 -33.935590 -0.915814 -0.792287 -0.872546 0.000007 0.000003 0.000000 -0.000000 -0.000000 
2.133652 31.115417 50.841438 1.747002 -6.251860 -4.443679 15.695793 3.230598 2.156944 18.892730 7.360077 3.379200 0.000000 0.000000 0.000000 18.719003 7.487795 3.782728 -47.227985 26.281468 -28.461882 39.969898 -34.405142 38.024018 0.000000 -0.000000 -0.000000 -2.920880 -13.934224 -10.054507 0.000000 0.000000 0.000000 -15.900435 7.130566 -67.405013 -0.000015 -55.377347 -0.000011 14.612005 10.219431 -7.765590 40.231552 -29.869753 63.220661 101.357180 66.798103 231.385635 -12.925881 -19.532215 6.920507 -0.000000 0.000003 -0.000000 0.345252 4.157193 -16.715903 0.573121 2.529096 -25.532459 0.066358 0.880223 -8.622729 0.000002 0.000001 -0.000003 -1.047812 2.751442 -36.235953 1.714577 4.141776 -44.961913 1.052598 3.352005 -34.858171 -0.000000 -0.000001 -0.000001 -3.228409 3.148121 -55.381493 2.281631 4.639184 -52.358953 3.597001 5.400850 -67.306002 -0.000001 -0.000000 0.000001 -0.415580 16.816248 7.010221 0.000000 0.000000 0.000000 -50.064843 9.752498 34.132689 -0.000012 102.015248 -0.000012 -0.832180 -16.814210 17.983355 32.697929 34.534867 -6.548643 23.673142 -54.235476 30.132944 0.999315 -34.867419 -5.347178 0.000001 0.000001 -0.000002 0.718697 -4.714153 27.043101 3.751693 -4.568488 78.776602 3.751693 -4.568483 78.776574 0.000004 -0.000002 -0.000002 4.252593 -9.772388 34.665990 5.688898 -4.541671 102.812597 5.225975 -4.622366 97.022953 -0.000000 -0.000001 0.000001 1.962010 -6.088671 61.568978 4.166826 -4.631339 83.949377 4.329088 -4.645612 85.955902 0.000000 0.000002 0.000001 -56.769189 6.992978 12.515686 46.086319 -3.620375 4.078877 -5.974556 -6.855687 -3.304462 3.731151 -2.876468 1.489672 0.000002 -0.000001 0.000000 -15.370518 2.900353 7.540659 46.130005 4.483472 -1.963798 -32.560461 -0.901878 -0.998289 -0.815207 0.000008 0.000003 0.000000 -0.000000 0.000000 
